<svg xmlns="http://www.w3.org/2000/svg" viewBox="0 0 192 192"><path d="M96.501 15.676a429.104 429.104 0 0 1 72.857 6.297c.371 9.953.792 25.339.085 38.394-1.582 29.108-7.988 51.7-20.168 71.101a123.181 123.181 0 0 1-52.774 45.856 123.186 123.186 0 0 1-52.775-45.856c-12.178-19.4-18.586-41.993-20.166-71.101-.71-13.055-.288-28.44.083-38.394A429.123 429.123 0 0 1 96.5 15.676zm0 2.804a426.545 426.545 0 0 0-70.14 5.874c-.513 14.767-.513 26.516-.004 35.861 1.553 28.612 7.826 50.78 19.74 69.762a119.64 119.64 0 0 0 50.404 44.263 119.65 119.65 0 0 0 50.404-44.263c11.915-18.981 18.186-41.15 19.74-69.762.51-9.345.51-21.094-.003-35.86a426.56 426.56 0 0 0-70.14-5.875zm-.203 84.999s.46 2.724.599 3.515a1.803 1.803 0 0 1-.019 1.006c-.366 1.413-2.06 8.86-3.416 16.482l-.21 1.204c-.555 3.21-1.033 6.398-1.312 9.124a6.392 6.392 0 0 0 .302 3.295c1.16 3.884 5.444 14.032 6.267 15.883a2.206 2.206 0 0 1 .173.64l.31 2.394c-1.374-2.076-8.834-15.8-11.764-23.4a4.037 4.037 0 0 1-.03-2.982c2.037-8.732 7.551-23.57 9.1-27.161zM85.42 82.386s.573 1.858 1.126 3.877l.193.716a33.385 33.385 0 0 1 .774 3.434 2.752 2.752 0 0 1-.191 1.761c-.682 1.814-1.935 4.731-3.272 7.714l-.577 1.28c-1.64 3.618-3.302 7.113-4.109 8.626a7.77 7.77 0 0 1-1.519 1.992c-1.707 1.74-4.975 5.026-6.998 6.865a3.173 3.173 0 0 0-1.082 2.105c-.24 1.39-.48 3.761-.547 4.986a4.043 4.043 0 0 0 .717 2.648c3.565 6.365 15.468 21.01 18.86 24.085a6.657 6.657 0 0 0 .943.717c.5.333 2.125 1.388 2.125 1.388a.573.573 0 0 1 .161.173l.588 1.037-.154-.077-.254-.126-.785-.392-.756-.378a161.716 161.716 0 0 1-3.265-1.673 5.048 5.048 0 0 1-.841-.57c-3.971-3.3-16.14-17.554-19.72-23.505a4.368 4.368 0 0 1-.863-3.374c.224-2.617.571-5.91.876-7.352a4.065 4.065 0 0 1 1.042-2.15c2.24-2.58 4.972-5.988 7.634-9.484l.936-1.236c4.035-5.363 7.751-10.73 9.14-13.465a2.498 2.498 0 0 0 .35-1.426 44.457 44.457 0 0 0-.668-5.862 1.594 1.594 0 0 1-.017-.397zm33.212-3.199l1.029.448a2.499 2.499 0 0 1 .811.564 109.004 109.004 0 0 1 12.364 15.224 2.888 2.888 0 0 1 .375 1.088 79.341 79.341 0 0 1-2.156 28.649 2.752 2.752 0 0 1-1.211 1.785c-2.472 1.862-6.162 4.83-9.832 7.855l-1.157.956c-4.42 3.664-8.62 7.25-10.403 8.901a6.712 6.712 0 0 0-1.156 1.406c-.836 1.36-2.112 3.7-2.739 4.861l-.175.325-.198.37c-.831-1.815-2.643-6.245-3.265-8.035a2.283 2.283 0 0 1-.025-1.673c1.014-3.713 5.806-14.506 6.739-16.458l.002.798a1.078 1.078 0 0 1-.055.342 124.709 124.709 0 0 0-3.52 13.473 5.148 5.148 0 0 0 0 1.847 38.107 38.107 0 0 0 1.258 4.88 21.946 21.946 0 0 1 1.178-2.136 5.68 5.68 0 0 1 .903-1.078c2.303-2.281 6.234-5.807 10.328-9.352l1.449-1.25a413.384 413.384 0 0 1 8.764-7.34 2.385 2.385 0 0 0 1.03-1.864 113.717 113.717 0 0 0 .488-20.038 6.818 6.818 0 0 0-1.15-3.37 47.706 47.706 0 0 0-6.237-7.277 2.799 2.799 0 0 1-.78-1.473c-.822-4.393-2.66-12.428-2.66-12.428zM65.286 89.352a2.227 2.227 0 0 1 1.209-.045c1.798.433 5.605 1.366 8.482 2.103a2.12 2.12 0 0 1 1.122.84l.627 1.043a1.228 1.228 0 0 1 .04 1.195 146.041 146.041 0 0 1-2.058 3.806l-.597 1.066c-1.098 1.95-2.192 3.833-2.812 4.823a2.264 2.264 0 0 1-1.365 1.201 410.99 410.99 0 0 1-8.436 2.866.66.66 0 0 0-.488.872c.15.864.631 3.796.816 4.651a.612.612 0 0 0 .79.478c1.234-.235 4.522-1.04 4.522-1.04s-.969.897-1.549 1.426a.972.972 0 0 1-.367.218c-.896.3-3.084.914-3.765 1.064-.532.114-.871-.095-1.008-.698 0 0-.932-3.974-1.27-5.325a10.31 10.31 0 0 0-.17-.588c-.253-.782-.86-2.32-1.203-3.125a.721.721 0 0 1-.058-.296c.01-.92.18-2.974.18-2.974s2.013 1.889 2.987 2.571a.624.624 0 0 0 .62.118c1.338-.344 4.415-1.363 6.103-1.995a2.347 2.347 0 0 0 .986-.706 49.274 49.274 0 0 0 5.203-7.874 1.474 1.474 0 0 0 .098-1.099l-.273-.898a1.162 1.162 0 0 0-.613-.658 229.545 229.545 0 0 0-8.082-2.915zm58.878-25.578a2.74 2.74 0 0 1 2.016.047 107.498 107.498 0 0 1 18.045 10.504 1.6 1.6 0 0 1 .748 1.11 66.631 66.631 0 0 1 .821 19.181 3.255 3.255 0 0 1-.385 1.243 89.588 89.588 0 0 1-9.783 16.134l.007-.072c.046-.467.297-3.104.31-4.53a.517.517 0 0 1 .205-.408 60.644 60.644 0 0 0 2.048-1.663 2.36 2.36 0 0 0 .51-.58 67.29 67.29 0 0 0 5.004-10.04 5.312 5.312 0 0 0 .289-2.21 90.796 90.796 0 0 0-1.91-13.32 2.25 2.25 0 0 0-1.147-1.447c-.816-.42-2.417-1.15-6.062-2.612a5.147 5.147 0 0 1-1.393-.834c-2.39-2.01-6.127-5.024-8.452-6.758a2.897 2.897 0 0 0-2.376-.505c-1.693.385-3.85.92-5.063 1.25a2.102 2.102 0 0 1-1 .072 34.848 34.848 0 0 0-.81-.081l-.455-.04c-.53-.046-1.027-.084-1.222-.1l-.087-.006c3.955-1.858 7.76-3.463 10.142-4.335zm-52.76 32.727a51.926 51.926 0 0 1-3.831 5.552 1.343 1.343 0 0 1-.562.396 94.602 94.602 0 0 1-4.757 1.604zM55.06 93.827l-.73 5.04-2.482-2.915a4.393 4.393 0 0 1 3.212-2.125zm13.367-28.539l-.678.836c-.038.036-.075.071-.113.11-.597.44-3.108 2.366-3.788 2.905a.762.762 0 0 0-.315.528c-.152.852-.407 2.471-.482 3.368a.53.53 0 0 1-.402.5c-1.165.475-2.546.974-3.663 1.422a1.468 1.468 0 0 0-.447.24c-.112.086-1.596 1.413-1.596 1.413s3.226-.796 4.41-1.064a.83.83 0 0 1 .665.077c.244.113.651.274.866.353a1.278 1.278 0 0 0 .867.036c1.333-.298 3.576-.83 4.77-1.141a3.991 3.991 0 0 0 1.484-.698c.571-.397 2.02-1.484 2.02-1.484s-.027.191-.047.298a.401.401 0 0 1-.108.214c-.295.355-.81.932-1.066 1.197a4.16 4.16 0 0 1-1.674 1.132c-3.39 1.414-9.185 3.61-13.532 5.117a1.336 1.336 0 0 0-.618.398c-.23.233-.535.572-.535.572s3.543.258 4.626.383a1.485 1.485 0 0 1 .869.386c.89.765 3.833 3.8 4.714 4.853 0 0-8.37 1.393-12.247 2.356a1.071 1.071 0 0 0-.826.807c-.321 1.128-1.078 4.756-1.078 4.756a3.724 3.724 0 0 1-.645-.303 2.602 2.602 0 0 1-.671-.57 38.705 38.705 0 0 1-3.15-3.904.854.854 0 0 1-.037-1.047c.787-.969 2.366-2.736 3.237-3.645a2.267 2.267 0 0 0 .336-.516 18.06 18.06 0 0 0 .814-2.591l.043-.173.005-.023-.023.015-.16.1-.713.45a.79.79 0 0 0-.379.4c-.141.296-.389.764-.576 1.088a1.575 1.575 0 0 1-.315.34c-1.112.85-2.34 1.764-3.214 2.38a.148.148 0 0 1-.188-.027 11.37 11.37 0 0 1-.662-.767.556.556 0 0 1-.101-.33c-.002-.22.02-.61.041-.9.027-.343.125-.506.542-.938.467-.485.976-.994 1.511-1.517 1.312-1.105 4.623-3.794 10.535-8.017a1.291 1.291 0 0 0 .295-.285 224.3 224.3 0 0 1 2.82-3.673 1.303 1.303 0 0 1 .208-.21 16.708 16.708 0 0 1 1.747-1.234c1.648-1.039 4.837-2.933 6.624-3.973zm36.037-1.873a1.212 1.212 0 0 1 .73.1l1.727.827a.632.632 0 0 1 .34.423c.234.988.521 2.298.714 3.411a2.016 2.016 0 0 1-.243 1.343c-.714 1.244-2.182 3.48-3.003 4.682a1.222 1.222 0 0 0-.148.917c.372 2.06 1.925 9.254 1.925 9.254l-.978-.89a1.418 1.418 0 0 1-.405-.618c-.695-2.035-1.995-6.287-2.593-8.355a1.071 1.071 0 0 1 .2-.977 79.956 79.956 0 0 0 3.372-4.473 1.055 1.055 0 0 0 .18-1.034 31 31 0 0 0-.858-1.596.713.713 0 0 0-.403-.33l-1.172-.375a.974.974 0 0 0-.626.011 223.217 223.217 0 0 0-8.089 3.136 1.184 1.184 0 0 1-.806.081c-.608-.09-2.38-.408-3.25-.57a.232.232 0 0 1-.154-.345l1.03-1.788a.994.994 0 0 1 .644-.474c3.314-.755 7.698-1.624 11.866-2.36zm-36.677 8.208a.367.367 0 0 1 .37.22 1.88 1.88 0 0 1-.05 1.488.814.814 0 0 1-.518.414l-1.654.368a.153.153 0 0 1-.184-.16l.154-1.944a.269.269 0 0 1 .246-.246zm18.82-12.49a.247.247 0 0 1 .215.37l-4.032 6.952a1.78 1.78 0 0 1-1.046.848l-7.561 2.368a11.13 11.13 0 0 1-2.534.48c-1.677.126-6.658.283-6.658.283l.11-.237a.496.496 0 0 1 .255-.248l2.357-1.002a1.143 1.143 0 0 0 .45-.337l3.64-4.487a2.442 2.442 0 0 1 .72-.612 77.692 77.692 0 0 1 9.677-4.17 3.425 3.425 0 0 1 .96-.159zm-4.043-8.071a197.3 197.3 0 0 1 30.422-.117 5.65 5.65 0 0 1 1.777.431 183.018 183.018 0 0 1 16.775 8.735 5.256 5.256 0 0 1 .863.618c1.846 1.63 6.525 6.422 6.525 6.422l-1.459-.29a1.541 1.541 0 0 1-.569-.236 111.65 111.65 0 0 0-10.874-6.392 3.99 3.99 0 0 0-1.37-.403 98.709 98.709 0 0 0-5.686-.416 4.393 4.393 0 0 1-2.038-.54c-1.433-.728-4.903-2.304-6.632-2.964a4.123 4.123 0 0 0-1.842-.338c-2.97.043-9.737.26-13.193.474a1.642 1.642 0 0 1-.35-.017l-1.648-.258c4.67-.805 16.217-1.835 20.996-2.086l-1.945-.651a4 4 0 0 0-1.164-.202 289.18 289.18 0 0 0-6.339-.074h-1.023c-4.536.009-10.372.12-15.754.525a4.105 4.105 0 0 0-1.362.34c-2.174.956-7.476 3.834-12.793 6.79l-1.18.657c-1.375.767-2.735 1.53-4.027 2.257l.791-1.02a.922.922 0 0 1 .301-.272c.214-.14.943-.621 1.679-1.11l.544-.361a98.59 98.59 0 0 0 1.058-.712c.11-.075.18-.128.318-.231 1.6-1.209 4.127-3.339 5.633-4.658a4.483 4.483 0 0 0 .868-1.03c.487-.79 1.019-1.645 1.346-2.119a1.794 1.794 0 0 1 1.352-.752zM47.029 31.867c2.062-.213 3.213.59 3.213 2.678V35.7c0 2.137-1.151 3-3.213 3.215q-4.276.447-8.547.97v3.157q-.895.11-1.792.223V33.062q5.164-.654 10.34-1.195zm95.664-.33q6.817.664 13.618 1.524v1.646q-2.94-.372-5.887-.707v8.558a537.8 537.8 0 0 0-1.794-.201v-8.559q-2.964-.327-5.937-.615zm-75.495-1.341v1.644q-5.608.347-11.209.824v2.512q4.982-.426 9.969-.745v1.646q-4.987.32-9.969.744v2.757q5.6-.48 11.209-.824V40.4q-6.485.399-12.962.976V31.172q6.478-.577 12.962-.975zm58.143 2.795c0-2.289 1.134-2.76 3.689-2.586q3.366.232 6.727.509c2.219.183 3.683.807 3.683 3.142v4.556c0 2.292-1.265 2.704-3.683 2.505q-3.364-.277-6.727-.508c-2.444-.165-3.689-.637-3.689-3.062zm-17.385-3.56q6.492.155 12.982.49v1.644q-5.61-.287-11.225-.443v2.512q4.994.14 9.983.38v1.647q-4.99-.243-9.983-.381v2.755q5.615.155 11.225.445v1.644q-6.49-.332-12.982-.49zm-22.523-.008v7.38c0 2.335-1.225 2.848-3.694 2.924q-3.224.1-6.448.243c-2.29.103-3.69-.333-3.69-2.644v-7.38l1.756-.09v7.691a.85.85 0 0 0 .932.824q4.226-.197 8.45-.32a.889.889 0 0 0 .892-.892v-7.691q.9-.025 1.802-.045zm42.598 2.56a.843.843 0 0 0-.935.873v5.046a1.036 1.036 0 0 0 .935.995q4.365.29 8.725.659a.902.902 0 0 0 .93-.854v-5.047a1.06 1.06 0 0 0-.93-1.014q-4.361-.37-8.725-.657zm-34.836-2.678q4.84-.035 9.677.032v1.644q-5.171-.067-10.345-.026a.956.956 0 0 0-.935.877v5.112a.992.992 0 0 0 .935.925q4.64-.04 9.278.014v-2.758q-2.693-.03-5.384-.028V33.45q3.57 0 7.141.053v6.046q-5.017-.075-10.033-.043c-2.449.016-3.694-.406-3.694-2.786v-4.447c0-2.221 1.112-2.952 3.36-2.968zM47.7 33.455l-.139.003q-4.543.47-9.079 1.026v3.756q4.536-.555 9.08-1.024a1.051 1.051 0 0 0 .928-.919v-2.066a.832.832 0 0 0-.929-.773z"/></svg>